HIERARCHY
ROOT ui
{
	 OFFSET 0 0 0
	 CHANNELS 3 XPosition YPosition Z Position
	 EndSite
	 {
	 OFFSET 0 -1 0
	 }
}
ROOT li
{
	 OFFSET 0 0 0
	 CHANNELS 3 XPosition YPosition Z Position
	 EndSite
	 {
	 OFFSET 0 -1 0
	 }
}
ROOT ul
{
	 OFFSET 0 0 0
	 CHANNELS 3 XPosition YPosition Z Position
	 EndSite
	 {
	 OFFSET 0 -1 0
	 }
}
ROOT ll
{
	 OFFSET 0 0 0
	 CHANNELS 3 XPosition YPosition Z Position
	 EndSite
	 {
	 OFFSET 0 -1 0
	 }
}
ROOT tt
{
	 OFFSET 0 0 0
	 CHANNELS 3 XPosition YPosition Z Position
	 EndSite
	 {
	 OFFSET 0 -1 0
	 }
}
ROOT tb
{
	 OFFSET 0 0 0
	 CHANNELS 3 XPosition YPosition Z Position
	 EndSite
	 {
	 OFFSET 0 -1 0
	 }
}
ROOT td
{
	 OFFSET 0 0 0
	 CHANNELS 3 XPosition YPosition Z Position
	 EndSite
	 {
	 OFFSET 0 -1 0
	 }
}
ROOT v
{
	 OFFSET 0 0 0
	 CHANNELS 3 XPosition YPosition Z Position
	 EndSite
	 {
	 OFFSET 0 -1 0
	 }
}
ROOT bn
{
	 OFFSET 0 0 0
	 CHANNELS 3 XPosition YPosition Z Position
	 EndSite
	 {
	 OFFSET 0 -1 0
	 }
}
MOTION
Frames: 10
Frame Time: 0.002
6.965500116348266E-5	-3.069429993629456E-4	0		0.4567303466796875	-2.3364033203125	0		-1.00089306640625	0.008562419891357422	0		-0.7322222290039062	-2.233487060546875	0		1.6235	-0.42996011352539065	0		3.193892333984375	-0.033988689422607424	0		4.6135458984375	0.11060468292236328	0		5.59794384765625	0.14191755676269532	0		-0.27995416259765626	5.8930810546875	0		
-0.01134089183807373	0.005465692043304444	0		0.49897418212890626	-2.339272216796875	0		-1.003412841796875	0.00434605598449707	0		-0.67196826171875	-2.236423828125	0		1.6110755615234376	-0.4213536376953125	0		3.156303955078125	-0.04427806854248047	0		4.6101689453125	0.11778659057617187	0		5.599482421875	0.14093780517578125	0		-0.11344782257080079	5.92294140625	0		
-0.013859745025634765	0.002142452001571655	0		0.4442751770019531	-2.33607421875	0		-1.0059318237304689	0.0011284890174865722	0		-0.66280419921875	-2.24680908203125	0		1.6095001220703125	-0.4258607177734375	0		3.152890625	-0.037928256988525394	0		4.6226943359375	0.1168047866821289	0		5.59592236328125	0.13202828979492187	0		-0.2445499267578125	5.90105859375	0		
-0.01237136173248291	0.0017803230285644532	0		0.5063406372070313	-2.353164306640625	0		-1.0044435424804687	8.683120012283325E-4	0		-0.6985222778320312	-2.244691162109375	0		1.59094580078125	-0.4261661376953125	0		3.15929638671875	-0.045671272277832034	0		4.60219580078125	0.11621205139160157	0		5.5884248046875	0.13119024658203124	0		-0.256577392578125	5.88987744140625	0		
-0.010921459197998046	0.0014274189472198487	0		0.4487657165527344	-2.334904052734375	0		-0.9870736694335938	-0.006567008018493652	0		-0.7312346801757813	-2.239593505859375	0		1.6213292236328125	-0.42900350952148436	0		3.181898193359375	-0.03257366943359375	0		4.61956591796875	0.10722557067871094	0		5.5939775390625	0.1382410888671875	0		-0.27350228881835936	5.8937626953125	0		
-0.0024410328865051268	0.008007184028625488	0		0.5059225769042969	-2.337923583984375	0		-0.993513427734375	0.007273948192596436	0		-0.7280199584960938	-2.237889404296875	0		1.600805419921875	-0.4192466125488281	0		3.15721826171875	-0.03991587829589844	0		4.60913671875	0.1205886459350586	0		5.59948193359375	0.14533169555664063	0		-0.27155096435546877	5.89344677734375	0		
-0.008175278663635254	7.623929977416992E-4	0		0.4780639343261719	-2.33796142578125	0		-0.9962135620117187	0.0030816259384155273	0		-0.6579793090820313	-2.24794091796875	0		1.6380537109375	-0.42512493896484377	0		3.189546142578125	-0.041873870849609376	0		4.6174228515625	0.11377841949462891	0		5.59677099609375	0.13856051635742186	0		-0.236610595703125	5.8997666015625	0		
-0.0068929090499877926	4.547170102596283E-4	0		0.4941888427734375	-2.335482177734375	0		-0.99896533203125	-9.896799921989441E-5	0		-0.74072509765625	-2.234227294921875	0		1.6003154296875	-0.4241172180175781	0		3.167965087890625	-0.030178253173828124	0		4.61871435546875	0.1130927963256836	0		5.60294921875	0.12773785400390625	0		-0.23484623718261718	5.8994775390625	0		
-0.005677525997161865	1.653279960155487E-4	0		0.4870668029785156	-2.34971533203125	0		-0.99775	-3.138729929924011E-4	0		-0.6558341064453125	-2.24843603515625	0		1.6204976806640625	-0.4247479248046875	0		3.192037109375	-0.0429723014831543	0		4.6309375	0.11232837677001953	0		5.604173828125	0.12702727508544923	0		-0.2331879425048828	5.899205078125	0		
-0.004531980037689209	-1.0486099869012833E-4	0		0.49008731079101564	-2.34704248046875	0		-0.9925697021484375	0.0024365239143371584	0		-0.7257550048828125	-2.240833251953125	0		1.615521240234375	-0.43305813598632814	0		3.151112548828125	-0.04896909713745117	0		4.619068359375	0.10989463806152344	0		5.600421875	0.1344331817626953	0		-0.264720458984375	5.89233642578125	0		
